<?xml version="1.0" encoding="UTF-8" standalone="no" ?>
<!DOCTYPE svg PUBLIC "-//W3C//DTD SVG 1.1//EN" "http://www.w3.org/Graphics/SVG/1.1/DTD/svg11.dtd">
<svg xmlns="http://www.w3.org/2000/svg" xmlns:xlink="http://www.w3.org/1999/xlink" version="1.1" width="1280" height="1024" viewBox="0 0 1280 1024" xml:space="preserve">
<desc>Created with Fabric.js 3.6.3</desc>
<defs>
</defs>
<g transform="matrix(1.9662058371735787 0 0 1.9662058371735787 640.2456813819576 512.1966205837173)" id="background-logo"  >
<rect style="stroke: none; stroke-width: 1; stroke-dasharray: none; stroke-linecap: butt; stroke-dashoffset: 0; stroke-linejoin: miter; stroke-miterlimit: 4; fill: rgb(229,255,255); fill-rule: nonzero; opacity: 1;"  paint-order="stroke"  x="-325" y="-260" rx="0" ry="0" width="650" height="520" />
</g>
<g transform="matrix(1.9699870022450665 0 0 1.9699870022450665 640.2456813819576 354.6244092216019)" id="logo-logo"  >
<g style=""  paint-order="stroke"   >
		<g transform="matrix(0 1.2895460212225156 -1.2895460212225156 0 0 0)"  >
<g style=""  paint-order="stroke"   >
		<g transform="matrix(1 0 0 1 0 0)"  >
<path style="stroke: none; stroke-width: 1; stroke-dasharray: none; stroke-linecap: butt; stroke-dashoffset: 0; stroke-linejoin: miter; stroke-miterlimit: 4; fill: rgb(17,94,148); fill-rule: nonzero; opacity: 1;"  paint-order="stroke"  transform=" translate(-100, -86)" d="M 150 0 H 50 L 0 86 l 50 86 h 100 l 50 -86 L 150 0 z M 144.2 162 H 55.8 L 11.6 86 l 44.2 -76 h 88.5 l 44.2 76 L 144.2 162 z" stroke-linecap="round" />
</g>
</g>
</g>
		<g transform="matrix(0.13617242855895034 0 0 -0.13617242855895034 0 15.76024356401669)"  >
<path style="stroke: none; stroke-width: 1; stroke-dasharray: none; stroke-linecap: butt; stroke-dashoffset: 0; stroke-linejoin: miter; stroke-miterlimit: 4; fill: rgb(17,94,148); fill-rule: nonzero; opacity: 1;"  paint-order="stroke"  transform=" translate(-527.1850000000001, -784.085)" d="M 762.387 172.801 C 657.699 89.3398 551.344 60.8203 527.188 55.1484 C 476.563 67.0898 64.2852 180.68 54.2148 704.207 L 500.176 849.102 L 500.18 480.75 c -53.582 -12.32 -93.696 -60.289 -93.696 -117.551 c 0 -66.558 54.153 -120.711 120.707 -120.711 c 66.563 0 120.715 54.153 120.715 120.711 c 0 57.262 -40.129 105.231 -93.703 117.551 V 849.102 L 1000.16 704.207 C 995.902 473.949 915.953 295.238 762.387 172.801 Z M 593.871 363.199 c 0 -36.769 -29.91 -66.687 -66.68 -66.687 c -36.765 0 -66.679 29.918 -66.679 66.687 c 0 36.762 29.914 66.68 66.679 66.68 c 36.77 0 66.68 -29.918 66.68 -66.68 z M 207.965 871.484 L 527.188 970.68 L 846.41 871.484 V 810.969 L 527.188 914.68 L 207.965 810.969 Z M 527.188 1088.27 L 846.41 989.074 V 928.055 L 527.188 1027.26 L 207.965 928.055 v 61.019 z m -175.489 84.89 l 175.489 54.32 l 175.492 -54.32 v -82.85 l -175.492 54.55 l -175.489 -54.54 z m 108.813 274.3 c 0 36.77 29.914 66.68 66.679 66.68 c 36.77 0 66.68 -29.91 66.68 -66.68 c 0 -36.77 -29.91 -66.68 -66.68 -66.68 c -36.765 0 -66.679 29.91 -66.679 66.68 z M 900.445 793.414 v 235.446 l -143.742 44.67 v 139.46 l -202.5 62.69 v 54.23 c 53.574 12.31 93.703 60.29 93.703 117.55 c 0 66.56 -54.152 120.71 -120.715 120.71 c -66.554 0 -120.707 -54.15 -120.707 -120.71 c 0 -57.26 40.114 -105.23 93.696 -117.55 l -0.004 -54.23 l -202.504 -62.69 V 1073.53 L 153.938 1028.86 V 793.414 L 0 743.395 V 723.773 C 0 402.332 141.578 222.879 260.344 128.941 C 389.109 27.0898 516.777 1.98047 522.148 0.949219 L 527.188 0 l 5.039 0.949219 c 5.375 1.031251 133.031 26.140581 261.8 127.991781 c 118.77 93.938 260.343 273.391 260.343 594.832 v 19.622 l -153.925 50.019" stroke-linecap="round" />
</g>
		<g transform="matrix(0.13617242855895034 0 0 -0.13617242855895034 0.0011574656427342234 -74.57314123127696)"  >
<path style="stroke: none; stroke-width: 1; stroke-dasharray: none; stroke-linecap: butt; stroke-dashoffset: 0; stroke-linejoin: miter; stroke-miterlimit: 4; fill: rgb(54,200,200); fill-rule: nonzero; opacity: 1;"  paint-order="stroke"  transform=" translate(-527.1935, -1447.46)" d="m 572.164 1447.46 c 0 24.84 -20.129 44.97 -44.973 44.97 c -24.832 0 -44.968 -20.13 -44.968 -44.97 c 0 -24.83 20.136 -44.97 44.968 -44.97 c 24.844 0 44.973 20.14 44.973 44.97" stroke-linecap="round" />
</g>
		<g transform="matrix(0.13617242855895034 0 0 -0.13617242855895034 0.0011574656427342234 73.07378893397888)"  >
<path style="stroke: none; stroke-width: 1; stroke-dasharray: none; stroke-linecap: butt; stroke-dashoffset: 0; stroke-linejoin: miter; stroke-miterlimit: 4; fill: rgb(54,200,200); fill-rule: nonzero; opacity: 1;"  paint-order="stroke"  transform=" translate(-527.1935, -363.19550000000004)" d="m 527.191 318.219 c 24.844 0 44.973 20.14 44.973 44.98 c 0 24.832 -20.129 44.973 -44.973 44.973 c -24.832 0 -44.968 -20.141 -44.968 -44.973 c 0 -24.84 20.136 -44.98 44.968 -44.98" stroke-linecap="round" />
</g>
</g>
</g>
<g transform="matrix(1.9699870022450665 0 0 1.9699870022450665 641.4493434403294 716.7790853138746)" id="text-logo-path"  >
<path style="stroke: none; stroke-width: 0; stroke-dasharray: none; stroke-linecap: butt; stroke-dashoffset: 0; stroke-linejoin: miter; stroke-miterlimit: 4; fill: rgb(17,94,148); fill-rule: nonzero; opacity: 1;"  paint-order="stroke"  transform=" translate(-185.32, 32.76)" d="M 21.06 -0.09 L 4.23 0 Q 3.76 0 3.76 -0.47 L 3.76 -0.47 L 3.95 -65.05 Q 3.95 -65.42 4.32 -65.42 L 4.32 -65.42 L 21.9 -65.52 Q 27.07 -65.61 31.35 -63.07 Q 35.63 -60.54 38.16 -56.26 Q 40.7 -51.98 40.7 -46.81 L 40.7 -46.81 L 40.7 -19.83 Q 40.7 -14.38 38.07 -9.92 Q 35.44 -5.45 31.02 -2.82 Q 26.6 -0.19 21.06 -0.09 L 21.06 -0.09 Z M 15.32 -54.14 L 15.23 -11.56 L 21.06 -11.56 Q 24.53 -11.56 26.93 -14.01 Q 29.33 -16.45 29.33 -19.83 L 29.33 -19.83 L 29.33 -46.91 Q 29.33 -49.91 27.12 -52.12 Q 24.91 -54.33 21.9 -54.24 L 21.9 -54.24 L 15.32 -54.14 Z M 42.11 -0.47 L 42.11 -0.47 L 53.77 -65.05 Q 53.86 -65.42 54.24 -65.42 L 54.24 -65.42 L 67.87 -65.42 Q 68.24 -65.42 68.34 -65.05 L 68.34 -65.05 L 79.52 -0.47 Q 79.62 0 79.15 0 L 79.15 0 L 68.71 0 Q 68.34 0 68.24 -0.47 L 68.24 -0.47 L 67.21 -7.33 L 54.43 -7.33 L 53.39 -0.47 Q 53.3 0 52.92 0 L 52.92 0 L 42.49 0 Q 42.11 0 42.11 -0.47 Z M 60.54 -43.8 L 56.31 -17.39 L 65.33 -17.39 L 61.48 -43.8 L 60.91 -47.28 L 60.54 -43.8 Z M 101.33 0 L 89.96 0 Q 89.58 0 89.49 -0.47 L 89.49 -0.47 L 76.52 -65.05 Q 76.42 -65.42 76.89 -65.42 L 76.89 -65.42 L 87.51 -65.42 Q 87.89 -65.42 87.98 -65.05 L 87.98 -65.05 L 95.69 -22 L 103.21 -65.05 Q 103.31 -65.42 103.68 -65.42 L 103.68 -65.42 L 114.21 -65.42 Q 114.68 -65.42 114.59 -65.05 L 114.59 -65.05 L 101.8 -0.47 Q 101.71 0 101.33 0 L 101.33 0 Z M 131.22 0 L 120.6 0 Q 120.13 0 120.13 -0.47 L 120.13 -0.47 L 120.23 -65.05 Q 120.23 -65.42 120.6 -65.42 L 120.6 -65.42 L 131.13 -65.42 Q 131.51 -65.42 131.51 -65.05 L 131.51 -65.05 L 131.6 -0.47 Q 131.6 0 131.22 0 L 131.22 0 Z M 157.17 -0.09 L 140.34 0 Q 139.87 0 139.87 -0.47 L 139.87 -0.47 L 140.06 -65.05 Q 140.06 -65.42 140.44 -65.42 L 140.44 -65.42 L 158.01 -65.52 Q 163.18 -65.61 167.46 -63.07 Q 171.74 -60.54 174.28 -56.26 Q 176.81 -51.98 176.81 -46.81 L 176.81 -46.81 L 176.81 -19.83 Q 176.81 -14.38 174.18 -9.92 Q 171.55 -5.45 167.13 -2.82 Q 162.71 -0.19 157.17 -0.09 L 157.17 -0.09 Z M 151.43 -54.14 L 151.34 -11.56 L 157.17 -11.56 Q 160.65 -11.56 163.04 -14.01 Q 165.44 -16.45 165.44 -19.83 L 165.44 -19.83 L 165.44 -46.91 Q 165.44 -49.91 163.23 -52.12 Q 161.02 -54.33 158.01 -54.24 L 158.01 -54.24 L 151.43 -54.14 Z M 209.15 0 L 198.53 0 Q 198.15 0 198.15 -0.47 L 198.15 -0.47 L 198.34 -65.05 Q 198.34 -65.42 198.72 -65.42 L 198.72 -65.42 L 217.7 -65.42 Q 222.78 -65.42 227.06 -62.93 Q 231.33 -60.44 233.87 -56.26 Q 236.41 -52.08 236.41 -46.81 L 236.41 -46.81 Q 236.41 -43.33 235.38 -40.56 Q 234.34 -37.79 232.93 -35.86 Q 231.52 -33.93 230.39 -32.99 L 230.39 -32.99 Q 235.47 -27.35 235.47 -19.74 L 235.47 -19.74 L 235.56 -0.47 Q 235.56 0 235.09 0 L 235.09 0 L 224.47 0 Q 224.1 0 224.1 -0.28 L 224.1 -0.28 L 224.1 -19.74 Q 224.1 -23.12 221.7 -25.61 Q 219.3 -28.11 215.82 -28.11 L 215.82 -28.11 L 209.62 -28.11 L 209.53 -0.47 Q 209.53 0 209.15 0 L 209.15 0 Z M 209.62 -54.14 L 209.62 -39.39 L 217.7 -39.39 Q 220.62 -39.39 222.87 -41.55 Q 225.13 -43.71 225.13 -46.81 L 225.13 -46.81 Q 225.13 -49.82 222.92 -51.98 Q 220.71 -54.14 217.7 -54.14 L 217.7 -54.14 L 209.62 -54.14 Z M 260.38 0.94 L 260.38 0.94 Q 255.3 0.94 251.12 -1.65 Q 246.94 -4.23 244.4 -8.51 Q 241.86 -12.78 241.86 -17.95 L 241.86 -17.95 L 241.96 -47.75 Q 241.96 -52.92 244.45 -57.15 Q 246.94 -61.38 251.17 -63.92 Q 255.4 -66.46 260.38 -66.46 L 260.38 -66.46 Q 265.46 -66.46 269.59 -63.92 Q 273.73 -61.38 276.22 -57.15 Q 278.71 -52.92 278.71 -47.75 L 278.71 -47.75 L 278.8 -17.95 Q 278.8 -12.78 276.31 -8.51 Q 273.82 -4.23 269.64 -1.65 Q 265.46 0.94 260.38 0.94 Z M 260.38 -10.43 L 260.38 -10.43 Q 263.2 -10.43 265.31 -12.74 Q 267.43 -15.04 267.43 -17.95 L 267.43 -17.95 L 267.34 -47.75 Q 267.34 -50.85 265.36 -53.02 Q 263.39 -55.18 260.38 -55.18 L 260.38 -55.18 Q 257.47 -55.18 255.4 -53.06 Q 253.33 -50.95 253.33 -47.75 L 253.33 -47.75 L 253.33 -17.95 Q 253.33 -14.85 255.4 -12.64 Q 257.47 -10.43 260.38 -10.43 Z M 303.15 0 L 286.32 0 Q 285.95 0 285.95 -0.47 L 285.95 -0.47 L 286.14 -65.05 Q 286.14 -65.42 286.51 -65.42 L 286.51 -65.42 L 304.56 -65.42 Q 309.92 -65.42 314.15 -62.84 Q 318.38 -60.25 320.82 -56.02 Q 323.27 -51.79 323.27 -46.81 L 323.27 -46.81 Q 323.27 -42.77 321.43 -39.29 Q 319.6 -35.81 317.06 -33.65 L 317.06 -33.65 Q 319.79 -30.93 321.29 -27.35 Q 322.8 -23.78 322.8 -19.83 L 322.8 -19.83 Q 322.8 -14.38 320.16 -9.87 Q 317.53 -5.36 313.07 -2.68 Q 308.6 0 303.15 0 L 303.15 0 Z M 297.42 -54.24 L 297.42 -39.48 L 304.56 -39.48 Q 307.85 -39.48 309.87 -41.78 Q 311.89 -44.09 311.89 -46.81 L 311.89 -46.81 Q 311.89 -49.82 309.73 -52.03 Q 307.57 -54.24 304.56 -54.24 L 304.56 -54.24 L 297.42 -54.24 Z M 297.42 -28.11 L 297.32 -11.47 L 303.15 -11.47 Q 306.53 -11.47 308.98 -13.96 Q 311.42 -16.45 311.42 -19.83 L 311.42 -19.83 Q 311.42 -23.22 308.98 -25.66 Q 306.53 -28.11 303.15 -28.11 L 303.15 -28.11 L 297.42 -28.11 Z M 346.77 0 L 329.94 0 Q 329.56 0 329.56 -0.47 L 329.56 -0.47 L 329.75 -65.05 Q 329.75 -65.42 330.13 -65.42 L 330.13 -65.42 L 348.18 -65.42 Q 353.53 -65.42 357.76 -62.84 Q 361.99 -60.25 364.44 -56.02 Q 366.88 -51.79 366.88 -46.81 L 366.88 -46.81 Q 366.88 -42.77 365.05 -39.29 Q 363.22 -35.81 360.68 -33.65 L 360.68 -33.65 Q 363.4 -30.93 364.91 -27.35 Q 366.41 -23.78 366.41 -19.83 L 366.41 -19.83 Q 366.41 -14.38 363.78 -9.87 Q 361.15 -5.36 356.68 -2.68 Q 352.22 0 346.77 0 L 346.77 0 Z M 341.03 -54.24 L 341.03 -39.48 L 348.18 -39.48 Q 351.47 -39.48 353.49 -41.78 Q 355.51 -44.09 355.51 -46.81 L 355.51 -46.81 Q 355.51 -49.82 353.35 -52.03 Q 351.18 -54.24 348.18 -54.24 L 348.18 -54.24 L 341.03 -54.24 Z M 341.03 -28.11 L 340.94 -11.47 L 346.77 -11.47 Q 350.15 -11.47 352.59 -13.96 Q 355.04 -16.45 355.04 -19.83 L 355.04 -19.83 Q 355.04 -23.22 352.59 -25.66 Q 350.15 -28.11 346.77 -28.11 L 346.77 -28.11 L 341.03 -28.11 Z" stroke-linecap="round" />
</g>
</svg>